<svg xmlns="http://www.w3.org/2000/svg" width="32" height="32" viewBox="0 0 32 32">
  <path fill="#5096F3" d="M16 2C8.268 2 2 8.268 2 16s6.268 14 14 14 14-6.268 14-14S23.732 2 16 2zm0 25.6c-6.407 0-11.6-5.193-11.6-11.6S9.593 4.4 16 4.4 27.6 9.593 27.6 16 22.407 27.6 16 27.6z"/>
  <path fill="#5096F3" d="M16 7.2c-4.856 0-8.8 3.944-8.8 8.8s3.944 8.8 8.8 8.8 8.8-3.944 8.8-8.8-3.944-8.8-8.8-8.8zm0 14.4c-3.09 0-5.6-2.51-5.6-5.6s2.51-5.6 5.6-5.6 5.6 2.51 5.6 5.6-2.51 5.6-5.6 5.6z"/>
  <circle fill="#5096F3" cx="16" cy="16" r="2.4"/>
</svg>
